<?xml version="1.0" encoding="UTF-8"?>
<svg xmlns="http://www.w3.org/2000/svg" xmlns:xlink="http://www.w3.org/1999/xlink" version="1.1" id="Capa_1" x="0px" y="0px" viewBox="0 0 512 512" style="enable-background:new 0 0 512 512;" xml:space="preserve" width="512" height="512">
<g>
	<g>
		<path style="fill:#FFCE62;" d="M291.967,502h102.282c17.218,0,31.176-13.958,31.176-31.176v-95.597&#10;&#9;&#9;&#9;c0-17.218-13.958-31.176-31.176-31.176H97.329c-17.218,0-31.176,13.958-31.176,31.176v95.597&#10;&#9;&#9;&#9;c0,17.218,13.958,31.176,31.176,31.176H203.98H291.967z"/>
		<path style="fill:none;stroke:#000000;stroke-width:20;stroke-linecap:round;stroke-linejoin:round;stroke-miterlimit:10;" d="&#10;&#9;&#9;&#9;M291.967,502h102.282c17.218,0,31.176-13.958,31.176-31.176v-95.597c0-17.218-13.958-31.176-31.176-31.176H97.329&#10;&#9;&#9;&#9;c-17.218,0-31.176,13.958-31.176,31.176v95.597c0,17.218,13.958,31.176,31.176,31.176H203.98"/>
		<g>
			<g>
				<path style="fill:none;stroke:#000000;stroke-width:20;stroke-linecap:round;stroke-linejoin:round;stroke-miterlimit:10;" d="&#10;&#9;&#9;&#9;&#9;&#9;M296.797,462.815l14.331-79.401c0.358-1.859,2.952-2.033,3.555-0.238l23.313,79.02c0.565,1.683,2.95,1.671,3.498-0.018&#10;&#9;&#9;&#9;&#9;&#9;l22.517-78.989c0.584-1.8,3.179-1.654,3.557,0.201l15.179,79.425"/>
			</g>
			<g>
				<path style="fill:none;stroke:#000000;stroke-width:20;stroke-linecap:round;stroke-linejoin:round;stroke-miterlimit:10;" d="&#10;&#9;&#9;&#9;&#9;&#9;M173.215,388.878c-6.507-4.396-14.35-6.963-22.794-6.963c-22.516,0-40.768,18.252-40.768,40.768&#10;&#9;&#9;&#9;&#9;&#9;c0,22.516,18.252,40.768,40.768,40.768c9.144,0,16.666-3.011,22.375-8.095c1.181-1.052,2.285-2.193,3.309-3.414"/>
			</g>
			<g>
				
					<line style="fill:none;stroke:#000000;stroke-width:20;stroke-linecap:round;stroke-linejoin:round;stroke-miterlimit:10;" x1="225.679" y1="424.536" x2="259.929" y2="463.451"/>
				
					<line style="fill:none;stroke:#000000;stroke-width:20;stroke-linecap:round;stroke-linejoin:round;stroke-miterlimit:10;" x1="215.846" y1="381.915" x2="215.846" y2="463.451"/>
				<path style="fill:none;stroke:#000000;stroke-width:20;stroke-linecap:round;stroke-linejoin:round;stroke-miterlimit:10;" d="&#10;&#9;&#9;&#9;&#9;&#9;M259.929,403.106c0,11.703-10.262,21.19-22.389,21.19c-6.015,0-21.516,0.093-21.516,0.093s-0.097-15.385-0.097-21.284&#10;&#9;&#9;&#9;&#9;&#9;c0-4.845-0.054-21.19-0.054-21.19s14.56,0,21.667,0C249.668,381.915,259.929,391.403,259.929,403.106z"/>
			</g>
		</g>
	</g>
	
		<polyline style="fill:none;stroke:#000000;stroke-width:20;stroke-linecap:round;stroke-linejoin:round;stroke-miterlimit:10;" points="&#10;&#9;&#9;472.938,265.778 439.852,285.287 420.834,249.986 &#9;"/>
	<g>
		<g>
			<path style="fill:#E0E7EF;" d="M361.165,223.405c-8.049-7.966-8.049-20.656,0-28.644l12.621-12.509&#10;&#9;&#9;&#9;&#9;c6.651-6.599,7.956-16.655,3.173-24.61l-19.237-32.045c-4.783-7.966-14.489-11.91-23.761-9.672l-17.591,4.249&#10;&#9;&#9;&#9;&#9;c-11.211,2.712-22.633-3.627-25.794-14.328l-4.959-16.768c-2.621-8.836-11.023-14.938-20.576-14.938h-38.497&#10;&#9;&#9;&#9;&#9;c-9.542,0-17.968,6.102-20.588,14.938l-4.947,16.768c-3.161,10.701-14.583,17.04-25.794,14.328l-17.603-4.249&#10;&#9;&#9;&#9;&#9;c-9.26-2.237-18.978,1.706-23.749,9.672l-19.225,32.045c-4.806,7.955-3.502,18.011,3.149,24.61l12.632,12.509&#10;&#9;&#9;&#9;&#9;c8.038,7.989,8.038,20.678,0,28.644l-12.632,12.531c-6.651,6.599-7.956,16.655-3.149,24.61l19.225,32.045&#10;&#9;&#9;&#9;&#9;c4.771,7.966,14.489,11.91,23.749,9.661l17.603-4.26c11.21-2.689,22.633,3.65,25.794,14.339l4.947,16.769&#10;&#9;&#9;&#9;&#9;c2.62,8.848,11.046,14.949,20.588,14.949h38.497c9.554,0,17.956-6.102,20.576-14.949l4.959-16.769&#10;&#9;&#9;&#9;&#9;c3.161-10.689,14.583-17.028,25.794-14.339l17.591,4.26c9.272,2.249,18.978-1.695,23.761-9.661l19.237-32.045&#10;&#9;&#9;&#9;&#9;c4.783-7.955,3.478-18.011-3.173-24.61L361.165,223.405z M245.788,261.829c-29.113,0-52.734-24.734-52.734-52.74&#10;&#9;&#9;&#9;&#9;s23.621-52.728,52.735-52.728c29.126,0,52.734,24.722,52.734,52.728C298.522,237.095,274.913,261.829,245.788,261.829z"/>
			<path style="fill:none;stroke:#000000;stroke-width:20;stroke-linecap:round;stroke-linejoin:round;stroke-miterlimit:10;" d="&#10;&#9;&#9;&#9;&#9;M361.164,223.41c-8.048-7.97-8.048-20.66,0-28.648l12.623-12.512c6.65-6.599,7.955-16.653,3.167-24.605l-19.236-32.05&#10;&#9;&#9;&#9;&#9;c-4.779-7.961-14.484-11.907-23.755-9.662l-17.596,4.248c-11.206,2.707-22.635-3.633-25.793-14.329l-4.955-16.769&#10;&#9;&#9;&#9;&#9;c-2.63-8.843-11.03-14.943-20.578-14.943h-38.499c-9.548,0-17.967,6.1-20.588,14.943l-4.945,16.769&#10;&#9;&#9;&#9;&#9;c-3.167,10.695-14.586,17.036-25.802,14.329l-17.596-4.248c-9.261-2.244-18.976,1.701-23.746,9.662l-19.236,32.05&#10;&#9;&#9;&#9;&#9;c-4.797,7.952-3.492,18.007,3.158,24.605l12.632,12.512c8.039,7.988,8.039,20.678,0,28.648l-12.632,12.53&#10;&#9;&#9;&#9;&#9;c-6.65,6.599-7.955,16.653-3.158,24.605l19.236,32.05c4.769,7.961,14.485,11.906,23.746,9.662l17.596-4.257&#10;&#9;&#9;&#9;&#9;c11.215-2.698,22.635,3.642,25.802,14.338l4.945,16.769c2.621,8.843,11.039,14.943,20.588,14.943h38.499&#10;&#9;&#9;&#9;&#9;c9.548,0,17.948-6.1,20.578-14.943l4.955-16.769c3.158-10.695,14.586-17.036,25.793-14.338l17.596,4.257&#10;&#9;&#9;&#9;&#9;c9.271,2.244,18.976-1.701,23.755-9.662l19.236-32.05c4.788-7.953,3.482-18.007-3.167-24.605L361.164,223.41z"/>
		</g>
		<path style="fill:none;stroke:#000000;stroke-width:20;stroke-linecap:round;stroke-linejoin:round;stroke-miterlimit:10;" d="&#10;&#9;&#9;&#9;M245.788,261.829c-29.113,0-52.734-24.734-52.734-52.74s23.621-52.728,52.735-52.728c29.126,0,52.734,24.722,52.734,52.728&#10;&#9;&#9;&#9;C298.522,237.095,274.913,261.829,245.788,261.829z"/>
	</g>
	
		<line style="fill:none;stroke:#000000;stroke-width:20;stroke-linecap:round;stroke-linejoin:round;stroke-miterlimit:10;" x1="247.982" y1="502" x2="247.982" y2="502"/>
	<path style="fill:none;stroke:#000000;stroke-width:20;stroke-linecap:round;stroke-linejoin:round;stroke-miterlimit:10;" d="&#10;&#9;&#9;M439.852,285.287c11.401-32.059,15.03-67.385,8.96-103.319C429.834,69.625,323.376-6.063,211.031,12.915&#10;&#9;&#9;S22.999,138.351,41.977,250.695c2.022,11.972,5.047,23.523,8.957,34.592"/>
</g>















</svg>
