<svg width="456" height="455" viewBox="0 0 456 455" fill="none" xmlns="http://www.w3.org/2000/svg">
<path d="M330.03 259.288L320.957 244.313C317.652 238.86 317.598 232.111 320.035 226.219C320.339 225.484 320.634 224.746 320.92 224.004C323.286 217.877 328.182 212.911 334.56 211.344L350.46 207.438C353.666 206.628 355.955 203.775 355.955 200.464L355.955 173.623C355.955 170.312 353.701 167.424 350.46 166.649L333.426 162.479C327.221 160.96 322.403 156.214 319.948 150.316C319.653 149.607 319.349 148.9 319.037 148.197C316.364 142.175 316.307 135.175 319.724 129.542L328.199 115.574C329.925 112.721 329.467 109.093 327.142 106.768L308.121 87.7471C305.796 85.4223 302.168 84.9644 299.315 86.6904L284.34 95.7642C278.887 99.0685 272.138 99.1233 266.246 96.6862C265.517 96.3846 264.785 96.0917 264.049 95.8076C257.913 93.4374 252.942 88.5287 251.383 82.1383L247.501 66.2253C246.691 63.0199 243.837 60.7303 240.526 60.7303L213.65 60.836C210.339 60.836 207.451 63.0903 206.676 66.3309L202.506 83.3658C200.987 89.5708 196.241 94.3883 190.344 96.843C189.642 97.1349 188.944 97.435 188.249 97.7432C182.213 100.42 175.196 100.47 169.558 97.0325L155.601 88.5221C152.748 86.7961 149.12 87.254 146.795 89.5788L127.81 108.565C125.485 110.889 125.027 114.517 126.753 117.371L135.827 132.346C139.131 137.799 139.186 144.547 136.749 150.439C136.447 151.168 136.154 151.901 135.87 152.636C133.5 158.772 128.591 163.744 122.201 165.303L106.288 169.185C103.082 169.995 100.793 172.848 100.793 176.159L100.793 203C100.793 206.311 103.047 209.199 106.288 209.974L123.322 214.144C129.527 215.663 134.345 220.409 136.8 226.307C137.095 227.017 137.399 227.723 137.711 228.426C140.384 234.449 140.442 241.448 137.024 247.081L128.549 261.049C126.823 263.902 127.281 267.53 129.606 269.855L148.592 288.841C150.916 291.166 154.545 291.624 157.398 289.898L176.371 278.401C179.345 276.599 183.03 276.545 186.178 278.022C191.883 280.7 198.141 276.52 198.645 270.237L199.27 262.443C199.751 256.445 196.681 250.835 192.154 246.872C191.95 246.693 191.748 246.513 191.546 246.331C190.799 245.658 190.009 245.026 189.184 244.451C158.688 223.209 150.598 181.373 171.276 150.27C192.234 118.744 234.785 110.15 266.31 131.108C297.836 152.066 306.43 194.617 285.472 226.142C280.866 233.067 275.014 239.12 268.237 243.977C267.384 244.589 266.572 245.256 265.8 245.968C265.407 246.332 265.009 246.689 264.606 247.041C260.083 250.989 256.999 256.593 257.481 262.577L257.95 268.394C258.531 275.606 265.718 280.39 272.207 277.189C275.881 275.376 280.253 275.374 283.752 277.505L301.147 288.101C304 289.827 307.628 289.369 309.953 287.045L328.974 268.024C331.299 265.769 331.756 262.141 330.03 259.288Z" fill="white"/>
<path fill-rule="evenodd" clip-rule="evenodd" d="M372.426 326.923C370.557 328.815 370.557 331.869 372.426 333.739C374.318 335.631 377.372 335.631 379.264 333.739L418.539 294.464C430.506 282.52 429.48 262.689 416.419 252.022L414.39 199.549C413.775 183.137 439.281 180.835 441.858 197.064L455.261 281.198C457.905 297.838 453.483 313.429 441.562 325.35L377.304 389.608C372.085 394.827 369.395 401.256 369.372 408.481H279.289L279.745 369.799C279.904 356.761 284.395 345.546 293.626 336.315L312.546 317.395C318.701 311.24 325.379 307.388 333.768 305.132L342.931 302.671L384.849 260.752C392.941 252.66 405.204 253.96 412.089 261.14C419.132 268.479 418.949 280.424 411.724 287.649L372.426 326.924L372.426 326.923Z" fill="white"/>
<path fill-rule="evenodd" clip-rule="evenodd" d="M370.853 454.411H278.513C273.133 454.411 268.734 450.011 268.734 444.632V427.924C268.734 422.544 273.133 418.145 278.513 418.145H370.853C376.232 418.145 380.632 422.544 380.632 427.924V444.632C380.632 450.011 376.232 454.411 370.853 454.411Z" fill="white"/>
<path fill-rule="evenodd" clip-rule="evenodd" d="M85.1564 454.411H177.473C182.853 454.411 187.275 450.011 187.275 444.632V427.924C187.275 422.544 182.853 418.145 177.473 418.145H85.1564C79.7767 418.145 75.3773 422.544 75.3773 427.924V444.632C75.3773 450.011 79.7767 454.411 85.1564 454.411Z" fill="white"/>
<path fill-rule="evenodd" clip-rule="evenodd" d="M44.2855 287.648L83.5601 326.923C85.4522 328.815 85.4522 331.869 83.5601 333.738C81.6913 335.63 78.6364 335.63 76.7443 333.738L37.4472 294.464C25.5026 282.519 26.5062 262.689 39.5902 252.021L41.5965 199.548C42.235 183.137 16.728 180.834 14.1298 197.063L0.749892 281.197C-1.91741 297.837 2.50531 313.428 14.4266 325.35L78.6838 389.607C83.9268 394.827 86.6166 401.255 86.6166 408.481H176.723L176.267 369.799C176.108 356.761 171.617 345.545 162.385 336.314L143.465 317.394C137.311 311.24 130.632 307.388 122.244 305.131L113.081 302.67L71.1628 260.751C62.7741 252.363 49.896 254.072 43.171 261.959C36.857 269.344 37.3813 280.742 44.288 287.649L44.2855 287.648Z" fill="white"/>
<path d="M129.457 0C131.972 0 134.16 1.71258 134.77 4.15234L140.045 25.6016C144.084 26.8802 148.006 28.5228 151.757 30.5078L168.428 20.5195C170.589 19.2198 173.344 19.5615 175.12 21.3428L190.614 36.8369C192.39 38.613 192.733 41.3743 191.438 43.5303C191.415 43.5686 184.674 54.8031 181.456 60.1602C170.827 63.5261 160.777 68.1949 151.496 73.9814C144.807 62.7183 132.521 55.1504 118.5 55.1504C97.3561 55.1504 80.1503 72.3562 80.1503 93.5C80.1503 108.908 89.2888 122.222 102.429 128.313C97.6371 138.1 94.0157 148.564 91.7489 159.523C89.4726 158.6 87.2433 157.559 85.0721 156.401C79.8277 159.542 69.1309 165.954 69.0917 165.978C66.9302 167.261 64.1693 166.925 62.3983 165.154L46.9052 149.66C45.129 147.884 44.7862 145.123 46.0809 142.967L55.6464 127.023C53.5972 123.177 51.9075 119.17 50.6073 115.045L29.1512 109.77C26.712 109.165 24.9999 106.972 24.9999 104.457V82.543C24.9999 80.0283 26.7125 77.8404 29.1522 77.2305L50.6014 71.9395C51.7515 68.3176 53.1961 64.7811 54.9188 61.3838L44.2294 43.5303C42.9346 41.3743 43.2775 38.613 45.0536 36.8369L60.5477 21.3428C62.3293 19.567 65.0788 19.2355 67.2401 20.5195L84.5262 30.8926C88.4907 28.7312 92.6531 26.9608 96.9598 25.5967C98.5756 19.1229 102.23 4.15137 102.23 4.15137C102.835 1.71212 105.028 0 107.543 0H129.457Z" fill="white"/>
<path d="M347.457 0C349.972 0.000167093 352.159 1.7127 352.77 4.15234L358.045 25.6016C362.084 26.8802 366.006 28.5228 369.756 30.5078L386.427 20.5195C388.588 19.2197 391.344 19.5613 393.12 21.3428L408.614 36.8369C410.391 38.613 410.733 41.3743 409.439 43.5303C409.439 43.5303 402.67 54.8128 399.449 60.1738C401.451 63.9456 403.109 67.8889 404.399 71.9551L425.848 77.2305C428.288 77.8404 430 80.0283 430 82.543V104.457C430 106.972 428.288 109.16 425.848 109.77L404.398 115.045C403.141 119.014 401.53 122.871 399.588 126.558L409.438 142.967C410.732 145.123 410.39 147.884 408.613 149.66L393.12 165.154C391.344 166.936 388.583 167.267 386.427 165.978C386.378 165.948 375.58 159.47 370.195 156.24C367.592 157.651 364.9 158.895 362.132 159.965C359.823 149.038 356.168 138.609 351.347 128.857C365.14 123.043 374.85 109.383 374.85 93.5C374.85 72.3563 357.644 55.1506 336.5 55.1504C321.987 55.1504 309.329 63.2567 302.818 75.1787C293.536 69.3557 283.481 64.6527 272.842 61.2559L262.23 43.5303C260.935 41.3743 261.277 38.6131 263.053 36.8369L278.547 21.3428C280.329 19.5667 283.079 19.2354 285.24 20.5195L302.527 30.8926C306.491 28.7312 310.653 26.9608 314.96 25.5967C316.576 19.1229 320.23 4.15137 320.23 4.15137C320.834 1.71204 323.029 0 325.543 0H347.457Z" fill="white"/>
<path d="M247.787 141.833C246.644 141.339 246.001 142.139 246.001 143.385C246.001 144.47 246.001 145.793 246.001 146.698V173.462C246.001 180.696 241.749 187.255 235.145 190.208C230.441 192.312 225.018 192.318 220.292 190.263C213.481 187.302 209.001 180.55 209.001 173.123L209.001 146.698C209.001 144.959 209.001 143.77 209.001 142.972C209.001 142.028 208.6 141.458 207.733 141.832C189.202 149.84 177.226 168.055 177.226 188.239C177.226 197.955 179.992 207.393 185.224 215.532C187.531 219.12 190.266 222.383 193.355 225.255C198.983 230.489 204.434 236.236 206.711 243.578C208.144 248.194 209.583 253.305 210.218 257C211.687 265.563 202.952 356.433 202.952 356.433C202.951 363.06 205.532 369.29 210.218 373.976C214.904 378.662 221.134 381.243 227.76 381.243C234.387 381.243 240.617 378.662 245.303 373.976C249.989 369.291 252.57 363.06 252.569 356.434C252.569 356.434 243.833 265.563 245.303 257C245.937 253.305 247.377 248.193 248.81 243.577C251.087 236.236 256.537 230.49 262.165 225.256C265.254 222.383 267.989 219.121 270.296 215.532C275.529 207.393 278.295 197.955 278.295 188.239C278.295 168.056 266.319 149.84 247.787 141.833Z" fill="white"/>
</svg>
